<svg width="389" height="127" viewBox="0 0 389 127" fill="none" xmlns="http://www.w3.org/2000/svg">
<path d="M124.5 63.5C124.5 94.7917 98.2763 120.5 65.5 120.5C32.7237 120.5 6.5 94.7917 6.5 63.5C6.5 32.2083 32.7237 6.5 65.5 6.5C98.2763 6.5 124.5 32.2083 124.5 63.5Z" fill="white" stroke="#219EBC" stroke-width="13"/>
<path d="M161.9 49.8C160.233 48.9667 158 48.55 155.2 48.55C150.867 48.55 148.7 50.15 148.7 53.35C148.7 54.8833 150.05 56.5 152.75 58.2C154.983 59.6333 156.733 60.7667 158 61.6C159.267 62.4333 160.033 62.9833 160.3 63.25C163 65.6167 164.35 68.35 164.35 71.45C164.35 74.9167 163.017 77.6333 160.35 79.6C158.083 81.2667 155.367 82.1 152.2 82.1C149.033 82.1 146.133 81.5167 143.5 80.35L144.15 74.8C146.65 76.2 149.4 76.9 152.4 76.9C156.833 76.9 159.05 74.95 159.05 71.05C159.05 69.5167 157.7 67.85 155 66.05C152.567 64.4167 150.717 63.1667 149.45 62.3C148.217 61.4333 147.55 60.9667 147.45 60.9C144.783 58.6 143.45 56.0833 143.45 53.35C143.45 50.25 144.65 47.7667 147.05 45.9C149.217 44.2333 151.95 43.4 155.25 43.4C157.983 43.4 160.5 43.8333 162.8 44.7L161.9 49.8ZM184.596 81.15C183.329 81.6833 181.896 81.95 180.296 81.95C177.129 81.95 175.079 81.1 174.146 79.4C173.446 78.2667 173.096 76.0833 173.096 72.85V58.7H168.796V53.75H173.096V47.8L178.496 46.05V53.75H183.796V58.7H178.496V74.25C178.496 76.1833 179.379 77.15 181.146 77.15C182.313 77.15 183.329 76.9333 184.196 76.5L184.596 81.15ZM202.66 59C202.227 58.9333 201.827 58.8833 201.46 58.85C201.093 58.7833 200.727 58.75 200.36 58.75C198.427 58.75 196.993 59.7 196.06 61.6C195.193 63.2667 194.76 65.3333 194.76 67.8V81.35H189.41V60.75C189.41 59.4833 189.377 58.3 189.31 57.2C189.277 56.0667 189.227 55.0167 189.16 54.05H194.56V57.4C196.093 54.7667 198.043 53.45 200.41 53.45C201.143 53.45 201.893 53.55 202.66 53.75V59ZM222.274 81.4V78.75C220.641 80.8833 218.291 81.95 215.224 81.95C211.891 81.95 209.424 81.0167 207.824 79.15C206.691 77.7833 206.124 76.1167 206.124 74.15C206.124 67.35 211.124 63.95 221.124 63.95H221.874V63.05C221.874 59.7833 220.358 58.15 217.324 58.15C214.591 58.15 211.891 58.8667 209.224 60.3V55.4C211.758 54.1 214.558 53.45 217.624 53.45C220.824 53.45 223.158 54.2 224.624 55.7C226.191 57.3333 226.974 59.8667 226.974 63.3V74.95C226.974 78.0167 227.074 80.1667 227.274 81.4H222.274ZM221.874 68.6H220.824C218.224 68.6 216.224 68.8333 214.824 69.3C212.591 70.0333 211.474 71.4833 211.474 73.65C211.474 76.05 212.858 77.25 215.624 77.25C219.791 77.25 221.874 74.7167 221.874 69.65V68.6ZM248.17 81.15C246.904 81.6833 245.47 81.95 243.87 81.95C240.704 81.95 238.654 81.1 237.72 79.4C237.02 78.2667 236.67 76.0833 236.67 72.85V58.7H232.37V53.75H236.67V47.8L242.07 46.05V53.75H247.37V58.7H242.07V74.25C242.07 76.1833 242.954 77.15 244.72 77.15C245.887 77.15 246.904 76.9333 247.77 76.5L248.17 81.15ZM264.334 58.15C262.068 58.15 260.268 59.05 258.934 60.85C257.668 62.6167 257.034 64.9 257.034 67.7C257.034 70.5 257.668 72.7833 258.934 74.55C260.268 76.35 262.068 77.25 264.334 77.25C266.601 77.25 268.384 76.35 269.684 74.55C270.984 72.8167 271.634 70.5333 271.634 67.7C271.634 64.9 270.984 62.6167 269.684 60.85C268.384 59.05 266.601 58.15 264.334 58.15ZM264.334 53.45C268.468 53.45 271.684 54.9333 273.984 57.9C276.051 60.5333 277.084 63.8 277.084 67.7C277.084 71.6 276.051 74.8667 273.984 77.5C271.684 80.4667 268.468 81.95 264.334 81.95C260.168 81.95 256.934 80.4667 254.634 77.5C252.601 74.9333 251.584 71.6667 251.584 67.7C251.584 63.7333 252.601 60.4667 254.634 57.9C256.934 54.9333 260.168 53.45 264.334 53.45ZM301.207 49.8C299.54 48.9667 297.307 48.55 294.507 48.55C290.173 48.55 288.007 50.15 288.007 53.35C288.007 54.8833 289.357 56.5 292.057 58.2C294.29 59.6333 296.04 60.7667 297.307 61.6C298.573 62.4333 299.34 62.9833 299.607 63.25C302.307 65.6167 303.657 68.35 303.657 71.45C303.657 74.9167 302.323 77.6333 299.657 79.6C297.39 81.2667 294.673 82.1 291.507 82.1C288.34 82.1 285.44 81.5167 282.807 80.35L283.457 74.8C285.957 76.2 288.707 76.9 291.707 76.9C296.14 76.9 298.357 74.95 298.357 71.05C298.357 69.5167 297.007 67.85 294.307 66.05C291.873 64.4167 290.023 63.1667 288.757 62.3C287.523 61.4333 286.857 60.9667 286.757 60.9C284.09 58.6 282.757 56.0833 282.757 53.35C282.757 50.25 283.957 47.7667 286.357 45.9C288.523 44.2333 291.257 43.4 294.557 43.4C297.29 43.4 299.807 43.8333 302.107 44.7L301.207 49.8ZM325.253 81.4V78.75C323.619 80.8833 321.269 81.95 318.203 81.95C314.869 81.95 312.403 81.0167 310.803 79.15C309.669 77.7833 309.103 76.1167 309.103 74.15C309.103 67.35 314.103 63.95 324.103 63.95H324.853V63.05C324.853 59.7833 323.336 58.15 320.303 58.15C317.569 58.15 314.869 58.8667 312.203 60.3V55.4C314.736 54.1 317.536 53.45 320.603 53.45C323.803 53.45 326.136 54.2 327.603 55.7C329.169 57.3333 329.953 59.8667 329.953 63.3V74.95C329.953 78.0167 330.053 80.1667 330.253 81.4H325.253ZM324.853 68.6H323.803C321.203 68.6 319.203 68.8333 317.803 69.3C315.569 70.0333 314.453 71.4833 314.453 73.65C314.453 76.05 315.836 77.25 318.603 77.25C322.769 77.25 324.853 74.7167 324.853 69.65V68.6ZM358.499 54.15L348.999 81.15H344.049L334.899 54.15H340.349L346.649 73.8L353.149 54.15H358.499ZM384.238 69.6H367.388C367.488 72 368.138 73.8667 369.338 75.2C370.572 76.6333 372.272 77.35 374.438 77.35C377.438 77.35 380.088 76.7 382.388 75.4V80.45C379.722 81.45 377.022 81.95 374.288 81.95C369.988 81.95 366.788 80.5833 364.688 77.85C362.855 75.4167 361.938 72.0167 361.938 67.65C361.938 63.45 362.955 60.0333 364.988 57.4C367.022 54.7667 369.755 53.45 373.188 53.45C377.022 53.45 379.888 54.8167 381.788 57.55C383.422 59.8833 384.238 62.9667 384.238 66.8V69.6ZM378.788 64.85C378.788 62.9833 378.305 61.4167 377.338 60.15C376.338 58.8167 375.022 58.15 373.388 58.15C371.722 58.15 370.305 58.8333 369.138 60.2C367.972 61.5667 367.388 63.1167 367.388 64.85H378.788Z" fill="#219EBC"/>
<path d="M86.718 31.376C84.6847 30.3593 81.96 29.851 78.544 29.851C73.2573 29.851 70.614 31.803 70.614 35.707C70.614 37.5777 72.261 39.55 75.555 41.624C78.2797 43.3727 80.4147 44.7553 81.96 45.772C83.5053 46.7887 84.4407 47.4597 84.766 47.785C88.06 50.6723 89.707 54.007 89.707 57.789C89.707 62.0183 88.0803 65.3327 84.827 67.732C82.0617 69.7653 78.7473 70.782 74.884 70.782C71.0207 70.782 67.4827 70.0703 64.27 68.647L65.063 61.876C68.113 63.584 71.468 64.438 75.128 64.438C80.5367 64.438 83.241 62.059 83.241 57.301C83.241 55.4303 81.594 53.397 78.3 51.201C75.3313 49.2083 73.0743 47.6833 71.529 46.626C70.0243 45.5687 69.211 44.9993 69.089 44.918C65.8357 42.112 64.209 39.0417 64.209 35.707C64.209 31.925 65.673 28.8953 68.601 26.618C71.2443 24.5847 74.579 23.568 78.605 23.568C81.9397 23.568 85.01 24.0967 87.816 25.154L86.718 31.376Z" fill="#D72451"/>
<path d="M70.718 58.376C68.6847 57.3593 65.96 56.851 62.544 56.851C57.2573 56.851 54.614 58.803 54.614 62.707C54.614 64.5777 56.261 66.55 59.555 68.624C62.2797 70.3727 64.4147 71.7553 65.96 72.772C67.5053 73.7887 68.4407 74.4597 68.766 74.785C72.06 77.6723 73.707 81.007 73.707 84.789C73.707 89.0183 72.0803 92.3327 68.827 94.732C66.0617 96.7653 62.7473 97.782 58.884 97.782C55.0207 97.782 51.4827 97.0703 48.27 95.647L49.063 88.876C52.113 90.584 55.468 91.438 59.128 91.438C64.5367 91.438 67.241 89.059 67.241 84.301C67.241 82.4303 65.594 80.397 62.3 78.201C59.3313 76.2083 57.0743 74.6833 55.529 73.626C54.0243 72.5687 53.211 71.9993 53.089 71.918C49.8357 69.112 48.209 66.0417 48.209 62.707C48.209 58.925 49.673 55.8953 52.601 53.618C55.2443 51.5847 58.579 50.568 62.605 50.568C65.9397 50.568 69.01 51.0967 71.816 52.154L70.718 58.376Z" fill="#D72451"/>
</svg>
