<svg width="131" height="127" viewBox="0 0 131 127" fill="none" xmlns="http://www.w3.org/2000/svg">
<path d="M124.5 63.5C124.5 94.7917 98.2763 120.5 65.5 120.5C32.7237 120.5 6.5 94.7917 6.5 63.5C6.5 32.2083 32.7237 6.5 65.5 6.5C98.2763 6.5 124.5 32.2083 124.5 63.5Z" fill="white" stroke="#219EBC" stroke-width="13"/>
<path d="M86.718 31.376C84.6847 30.3593 81.96 29.851 78.544 29.851C73.2573 29.851 70.614 31.803 70.614 35.707C70.614 37.5777 72.261 39.55 75.555 41.624C78.2797 43.3727 80.4147 44.7553 81.96 45.772C83.5053 46.7887 84.4407 47.4597 84.766 47.785C88.06 50.6723 89.707 54.007 89.707 57.789C89.707 62.0183 88.0803 65.3327 84.827 67.732C82.0617 69.7653 78.7473 70.782 74.884 70.782C71.0207 70.782 67.4827 70.0703 64.27 68.647L65.063 61.876C68.113 63.584 71.468 64.438 75.128 64.438C80.5367 64.438 83.241 62.059 83.241 57.301C83.241 55.4303 81.594 53.397 78.3 51.201C75.3313 49.2083 73.0743 47.6833 71.529 46.626C70.0243 45.5687 69.211 44.9993 69.089 44.918C65.8357 42.112 64.209 39.0417 64.209 35.707C64.209 31.925 65.673 28.8953 68.601 26.618C71.2443 24.5847 74.579 23.568 78.605 23.568C81.9397 23.568 85.01 24.0967 87.816 25.154L86.718 31.376Z" fill="#D72451"/>
<path d="M70.718 58.376C68.6847 57.3593 65.96 56.851 62.544 56.851C57.2573 56.851 54.614 58.803 54.614 62.707C54.614 64.5777 56.261 66.55 59.555 68.624C62.2797 70.3727 64.4147 71.7553 65.96 72.772C67.5053 73.7887 68.4407 74.4597 68.766 74.785C72.06 77.6723 73.707 81.007 73.707 84.789C73.707 89.0183 72.0803 92.3327 68.827 94.732C66.0617 96.7653 62.7473 97.782 58.884 97.782C55.0207 97.782 51.4827 97.0703 48.27 95.647L49.063 88.876C52.113 90.584 55.468 91.438 59.128 91.438C64.5367 91.438 67.241 89.059 67.241 84.301C67.241 82.4303 65.594 80.397 62.3 78.201C59.3313 76.2083 57.0743 74.6833 55.529 73.626C54.0243 72.5687 53.211 71.9993 53.089 71.918C49.8357 69.112 48.209 66.0417 48.209 62.707C48.209 58.925 49.673 55.8953 52.601 53.618C55.2443 51.5847 58.579 50.568 62.605 50.568C65.9397 50.568 69.01 51.0967 71.816 52.154L70.718 58.376Z" fill="#D72451"/>
</svg>
